<svg width="155" height="123" viewBox="0 0 155 123" fill="none" xmlns="http://www.w3.org/2000/svg">
<path d="M137.922 55.0171C137.699 55.6915 137.922 56.8258 137.922 57.5432C137.922 58.1318 137.922 58.7229 137.922 59.3115C137.987 60.0037 138.174 60.9737 138.174 61.8377C138.761 74.9332 140.508 87.7433 142.472 100.488C146.566 98.7523 150.504 96.6076 154.608 94.9302C151.758 83.3301 148.752 71.4951 148.287 59.3115C148.196 58.6724 148.034 57.8413 148.034 57.038C148.034 56.0275 148.034 55.0171 148.034 54.0066C148.034 53.5014 148.034 52.9961 148.034 52.4909C148.034 51.2733 148.333 49.6237 148.034 48.4491C148.034 48.1965 148.034 47.9438 148.034 47.6912C146.432 48.7093 144.118 49.8662 142.788 51.291C141.456 52.7132 138.781 53.317 137.922 55.0171Z" fill="#FFC14E" stroke="#FFC14E" stroke-width="0.562524"/>
<path d="M55.8206 36.7716C55.8852 37.4353 56.036 38.3339 56.036 39.1419C56.036 42.0143 56.036 44.8889 56.036 47.7613C57.5327 47.0696 59.4127 46.6795 60.8426 45.8909C62.2747 45.1044 64.3529 45.0138 65.5761 43.9472C66.8014 42.8827 66.2781 40.0125 66.5882 38.28C66.8983 36.5475 66.5882 33.6536 66.5882 31.8155C66.5301 31.2229 66.3729 30.3976 66.3729 29.6607C66.7605 26.7107 65.5847 23.3039 65.5825 20.5393C65.5804 17.7747 63.5518 14.2407 66.8036 13.284C65.0054 9.14672 63.4678 4.87584 62.9272 0.355011C59.3847 2.1349 56.023 4.34576 52.5903 6.38853C53.7812 16.4387 55.8206 26.4435 55.8206 36.7716Z" fill="#FFC14E" stroke="#FFC14E" stroke-width="0.463127"/>
<path d="M94.3889 5.53738C91.0424 6.49844 87.6462 7.83443 84.3147 8.81703C80.9854 9.80179 77.9037 11.2908 74.5808 12.2217C71.2601 13.1547 67.5647 14.2407 67.6852 18.4664C70.9672 17.3265 74.2858 16.0702 77.5871 15.0143C80.8863 13.9563 84.0499 12.6462 87.3512 11.6399C90.6526 10.6336 94.2877 9.73068 94.3889 5.53738Z" fill="#FFC14E" stroke="#FFC14E" stroke-width="0.463127"/>
<path d="M18.1338 22.3361C23.4078 22.4503 27.5576 20.5972 31.4318 17.1107C35.3081 13.6241 33.8265 5.7073 28.0443 6.39469C22.2642 7.08208 21.952 14.9795 26.3172 17.1645C23.5844 18.5479 20.7094 19.6555 17.7031 20.1813C17.5717 20.9786 18.1747 21.5711 18.1338 22.3361ZM30.1935 14.1478C28.5267 14.374 24.8312 12.4282 27.0171 10.5384C29.2029 8.64864 31.365 12.1502 30.1935 14.1478Z" fill="#FFC14E" stroke="#FFC14E" stroke-width="0.463127"/>
<path d="M56.6815 54.4421C57.8208 55.582 59.0827 56.668 60.1272 57.8898C61.1975 59.1439 62.4917 60.2881 63.5728 61.553C63.9992 61.9797 65.1535 63.3932 65.7263 63.4924C74.0174 61.1199 80.2691 53.3711 81.4471 44.9608C91.9864 50.7207 103.243 43.1939 110.95 36.126C109.794 46.5511 125.786 51.2142 130.547 42.1596C133.776 44.3338 136.969 47.0338 141.1 47.1157C141.739 47.1286 142.398 47.1501 143.038 47.1157C150.864 46.6912 153.075 37.5676 152.298 31.1699C151.518 24.7744 147.935 17.657 140.669 17.379C140.036 17.3553 139.364 17.3359 138.731 17.379C135.072 17.6613 132.322 20.2449 130.399 23.2639C128.474 26.2806 128.051 30.1076 125.971 33.0554C123.893 36.0054 117.519 35.4516 116.334 32.0319C118.843 31.6806 120.917 31.8422 121.292 29.2349C121.668 26.6297 121.968 25.604 122.627 23.029C123.288 20.4561 120.62 20.816 118.492 20.3915C116.366 19.9648 114.59 19.2063 112.677 18.4521C110.767 17.6958 109.251 17.0105 107.44 16.1529C105.627 15.2931 104.022 14.5648 102.136 13.9162C100.252 13.2655 97.3142 12.7138 95.277 13.1168C93.2419 13.5197 91.7732 14.2955 90.3303 15.709C88.8875 17.1226 88.3986 18.7797 87.6772 20.5962C86.9536 22.4105 86.7383 24.7485 86.1848 26.6448C88.5494 27.0887 90.8623 27.7631 93.2914 27.9377C93.0029 24.087 97.101 23.8521 99.7046 24.9683C102.308 26.0867 104.888 26.8991 107.505 27.9377C104.593 30.1787 101.135 32.2086 97.4327 33.3743C93.7307 34.5379 88.1251 36.0722 84.4792 33.7385C80.8333 31.4027 81.2942 26.3065 79.9396 22.7661C76.5112 23.9857 73.1409 25.3411 69.818 26.8603C71.4827 32.3831 74.1445 39.897 70.4102 45.1224C66.6782 50.3479 60.9757 51.8197 55.1741 52.7182C55.6199 53.3065 56.1927 53.8711 56.6815 54.4421ZM139.808 28.1532C141.08 28.3859 142.026 30.2864 142.461 31.3165C142.896 32.3465 143.68 35.4451 141.944 35.6778C140.21 35.9127 139.228 34.6392 137.721 34.122C136.211 33.6027 135.397 31.9047 136.345 30.7217C137.294 29.5409 137.983 27.8192 139.808 28.1532Z" fill="#FFC14E" stroke="#FFC14E" stroke-width="0.463127"/>
<path d="M10.8119 30.9521C10.6784 30.2044 10.6934 29.5299 10.8119 28.7973C10.6956 27.3212 11.6475 26.1339 11.6733 24.7031C9.60161 24.0739 7.50623 23.546 5.42808 22.9792C2.44976 29.7648 0.623565 40.9613 8.07691 45.7558C15.5303 50.5503 26.4099 48.9665 34.7117 48.4019C43.0114 47.8352 50.9579 43.3165 51.2981 34.3998C51.3304 33.5401 51.2981 32.6738 51.2981 31.814C51.1818 27.0605 49.6313 22.6474 47.6371 18.4541C46.0931 19.6005 43.5174 20.3288 42.0875 21.5204C40.6576 22.712 36.8221 23.0353 38.2112 25.3C39.6002 27.5647 39.4279 28.5753 40.7932 31.1202C42.1607 33.6629 40.5283 35.3824 37.7783 35.5247C35.0283 35.669 32.8704 36.5525 30.1979 36.559C27.5275 36.5676 24.5901 36.9382 22.0102 36.7702C19.4303 36.6021 16.9279 36.2077 14.7055 35.46C12.4809 34.7123 10.9669 33.2298 10.8119 30.9521Z" fill="#FFC14E" stroke="#FFC14E" stroke-width="0.463127"/>
<path d="M52.5899 84.609C52.6653 85.3869 52.7299 86.195 52.5899 86.9793C52.3315 90.774 48.2053 90.1232 47.0575 87.3435C45.9075 84.5659 46.1401 81.6246 44.4603 79.1681C42.7806 76.7116 40.0284 75.8281 37.2999 75.7742C36.4385 75.757 35.577 75.7742 34.7156 75.7742C27.9687 76.0112 21.6459 78.1898 15.7646 81.1613C16.8069 84.9689 18.6417 88.5761 18.9949 92.5819C19.1974 93.5753 19.1694 94.6225 18.9949 95.5986C18.8916 97.1243 18.6999 97.8979 17.9871 99.3308C17.2764 100.766 17.5844 100.805 16.2492 102.332C14.9118 103.86 12.7605 105.69 11.0441 106.606C9.3256 107.521 9.11025 107.448 7.80091 108.101C6.49372 108.756 5.04225 108.569 4.06455 109.103C3.08901 109.637 0.504779 109.056 0.259277 110.036C1.48032 111.079 2.67122 112.275 3.70491 113.484C5.57417 115.673 7.87413 117.554 9.73478 119.733C10.2344 120.543 11.1604 121.069 11.6729 121.888C25.7161 118.192 33.178 102.091 29.3318 88.4877C31.6296 87.4986 37.1362 86.5915 38.1656 89.7763C39.1971 92.9611 39.2014 95.9089 41.2257 98.5659C43.2501 101.223 45.6383 102.643 48.9289 102.71C49.6396 102.725 50.3717 102.748 51.0824 102.71C54.2567 102.761 56.9055 100.535 58.6197 97.969C60.4072 100.559 62.8859 102.645 66.1571 102.71C66.9388 102.725 67.7442 102.753 68.5259 102.71C71.5301 102.66 73.9528 100.372 75.4172 97.969C77.4545 101.33 81.3631 102.71 85.1081 102.71C85.8984 102.71 86.6866 102.71 87.4769 102.71C89.6219 102.71 92.0316 102.408 93.9332 101.628C95.8326 100.846 97.4671 100.792 99.1706 99.542C100.874 98.2943 102.293 98.109 103.898 99.639C105.502 101.169 107.05 101.199 108.997 101.863C110.944 102.526 113.334 102.71 115.473 102.71C116.765 102.71 118.057 102.71 119.349 102.71C122.939 102.71 126.238 101.699 129.255 99.9083C130.084 99.292 131.114 98.3224 131.84 97.538C137.996 88.5696 133.87 76.5823 133.562 66.5085C134.73 66.0128 135.677 65.0173 136.793 64.3536C134.329 59.9987 132.619 55.3184 131.193 50.5627C127.425 52.4374 123.725 54.2087 119.995 56.1653C120.499 59.697 121.253 63.7287 121.647 67.226C122.041 70.7233 122.989 74.992 123.01 78.36C123.034 81.728 125.258 86.6001 122.198 88.7528C119.138 90.9054 114.685 89.3561 111.381 89.1342C113.069 86.9104 114.422 84.8547 115.477 82.243C116.532 79.6335 116.976 75.8259 115.972 73.1195C114.971 70.4108 113.257 68.7861 110.535 67.7863C107.815 66.7843 104.16 66.3856 101.188 66.6528C98.2166 66.92 94.5943 67.1377 91.9304 68.1634C89.2665 69.1869 85.9264 69.3701 85.5345 72.5377C85.1425 75.7031 84.3156 78.778 84.2467 82.0232C88.8078 81.1958 91.5945 85.6563 93.9375 88.7032C89.6714 89.9121 81.4385 91.2179 79.4938 85.917C77.5471 80.6183 77.9153 75.6406 75.4172 70.6026C73.2142 71.1564 71.332 72.4881 69.1785 73.1949C67.0228 73.8995 64.3847 74.7291 65.7307 77.0628C67.0788 79.3943 66.6631 81.5319 67.7119 83.6997C68.7628 85.8674 68.3235 89.9896 65.5153 89.5608C62.7093 89.1298 62.9806 86.3781 62.1364 84.3224C61.2901 82.2667 61.3418 79.1056 60.9886 76.8516C57.81 77.0779 54.864 78.2006 51.7285 78.5755C51.9137 80.6463 52.5899 82.4887 52.5899 84.609ZM100.613 82.2387C99.8403 81.4651 99.0069 80.6312 98.2446 79.8684C97.6566 79.3642 96.9568 78.9806 96.5217 78.36C99.0004 78.0411 103.923 76.231 106.157 78.2006C108.39 80.1679 103.745 83.5769 102.552 84.8245C101.981 83.9044 101.285 83.0856 100.613 82.2387Z" fill="#FFC14E" stroke="#FFC14E" stroke-width="0.463127"/>
<path d="M111.382 50.7803C106.521 52.2714 100.916 53.8358 96.2381 55.6674C91.5585 57.4969 84.9494 57.5292 84.2473 63.4938C86.8165 62.7999 89.4265 61.8992 91.9526 61.076C94.4766 60.2507 96.7184 59.1755 99.3069 58.5226C101.893 57.8675 104.049 56.5595 106.713 56.0208C109.377 55.4843 111.102 53.644 111.382 50.7803Z" fill="#FFC14E" stroke="#FFC14E" stroke-width="0.463127"/>
<path d="M49.1442 51.4271C42.5286 50.3518 40.2157 59.6305 46.8464 61.2682C53.4771 62.9059 55.749 52.5002 49.1442 51.4271Z" fill="#FFC14E" stroke="#FFC14E" stroke-width="0.463127"/>
<path d="M28.9008 52.0705C22.2959 50.7022 19.6449 59.9938 26.1723 61.9116C32.6996 63.8294 35.497 53.4367 28.9008 52.0705Z" fill="#FFC14E" stroke="#FFC14E" stroke-width="0.463127"/>
<path d="M43.7607 61.9827C39.753 61.1531 35.657 64.7753 37.1343 68.6131C38.6117 72.4508 43.2288 72.7331 45.9681 70.4404C48.7052 68.1476 47.3787 62.7325 43.7607 61.9827Z" fill="#FFC14E" stroke="#FFC14E" stroke-width="0.463127"/>
<path d="M55.3895 61.9817C51.2763 61.1284 47.4473 64.6796 48.8644 68.513C50.2792 72.3443 54.8447 72.7171 57.5969 70.4395C60.3491 68.1596 58.9321 62.7165 55.3895 61.9817Z" fill="#FFC14E" stroke="#FFC14E" stroke-width="0.463127"/>
</svg>
