<svg width="155" height="123" viewBox="0 0 155 123" fill="none" xmlns="http://www.w3.org/2000/svg">
<path d="M137.922 55.0172C137.7 55.6917 137.922 56.826 137.922 57.5434C137.922 58.132 137.922 58.7231 137.922 59.3117C137.988 60.0039 138.175 60.9739 138.175 61.8378C138.761 74.9334 140.508 87.7435 142.473 100.488C146.566 98.7525 150.505 96.6078 154.608 94.9304C151.759 83.3303 148.753 71.4953 148.288 59.3117C148.197 58.6726 148.035 57.8415 148.035 57.0382C148.035 56.0277 148.035 55.0172 148.035 54.0068C148.035 53.5016 148.035 52.9963 148.035 52.4911C148.035 51.2735 148.333 49.6239 148.035 48.4493C148.035 48.1966 148.035 47.944 148.035 47.6914C146.432 48.7094 144.119 49.8664 142.789 51.2912C141.456 52.7134 138.782 53.3171 137.922 55.0172Z" fill="#9C6114" stroke="#9C6114" stroke-width="0.562524"/>
<path d="M55.8207 36.7721C55.8853 37.4358 56.036 38.3343 56.036 39.1424C56.036 42.0148 56.036 44.8893 56.036 47.7617C57.5327 47.07 59.4128 46.68 60.8427 45.8913C62.2748 45.1048 64.3529 45.0143 65.5761 43.9477C66.8015 42.8832 66.2782 40.013 66.5883 38.2805C66.8984 36.548 66.5883 33.654 66.5883 31.816C66.5301 31.2234 66.3729 30.3981 66.3729 29.6611C66.7606 26.7112 65.5848 23.3044 65.5826 20.5398C65.5804 17.7751 63.5518 14.2412 66.8036 13.2844C65.0055 9.14717 63.4678 4.8763 62.9273 0.355469C59.3848 2.13536 56.0231 4.34621 52.5904 6.38899C53.7813 16.4391 55.8207 26.444 55.8207 36.7721Z" fill="#9C6114" stroke="#9C6114" stroke-width="0.463127"/>
<path d="M94.3891 5.53711C91.0425 6.49816 87.6464 7.83416 84.3149 8.81676C80.9856 9.80152 77.9039 11.2905 74.581 12.2214C71.2603 13.1544 67.5648 14.2405 67.6854 18.4661C70.9674 17.3262 74.286 16.0699 77.5873 15.014C80.8865 13.956 84.0501 12.6459 87.3514 11.6396C90.6528 10.6333 94.2879 9.73041 94.3891 5.53711Z" fill="#9C6114" stroke="#9C6114" stroke-width="0.463127"/>
<path d="M18.134 22.337C23.408 22.4512 27.5579 20.5981 31.432 17.1115C35.3084 13.625 33.8268 5.70818 28.0445 6.39557C22.2645 7.08296 21.9522 14.9804 26.3174 17.1654C23.5846 18.5488 20.7096 19.6564 17.7033 20.1822C17.572 20.9795 18.175 21.572 18.134 22.337ZM30.1938 14.1486C28.5269 14.3749 24.8315 12.4291 27.0173 10.5393C29.2031 8.64952 31.3653 12.1511 30.1938 14.1486Z" fill="#9C6114" stroke="#9C6114" stroke-width="0.463127"/>
<path d="M56.6816 54.4428C57.8208 55.5827 59.0828 56.6688 60.1273 57.8905C61.1976 59.1447 62.4918 60.2889 63.5729 61.5538C63.9993 61.9804 65.1536 63.394 65.7264 63.4931C74.0175 61.1206 80.2692 53.3719 81.4471 44.9616C91.9865 50.7214 103.243 43.1946 110.95 36.1268C109.794 46.5518 125.786 51.2149 130.547 42.1603C133.776 44.3345 136.969 47.0345 141.1 47.1164C141.739 47.1293 142.398 47.1509 143.038 47.1164C150.864 46.6919 153.075 37.5683 152.298 31.1707C151.518 24.7751 147.935 17.6577 140.669 17.3798C140.036 17.3561 139.364 17.3367 138.731 17.3798C135.072 17.662 132.322 20.2457 130.399 23.2646C128.474 26.2814 128.052 30.1083 125.971 33.0561C123.893 36.0061 117.519 35.4523 116.334 32.0326C118.843 31.6814 120.917 31.843 121.292 29.2356C121.669 26.6304 121.968 25.6047 122.627 23.0297C123.288 20.4569 120.62 20.8167 118.492 20.3922C116.367 19.9655 114.59 19.2071 112.678 18.4529C110.767 17.6965 109.251 17.0113 107.44 16.1537C105.627 15.2939 104.023 14.5655 102.136 13.9169C100.252 13.2662 97.3143 12.7146 95.2771 13.1175C93.242 13.5205 91.7733 14.2962 90.3304 15.7098C88.8876 17.1233 88.3987 18.7804 87.6773 20.5969C86.9537 22.4113 86.7384 24.7493 86.1849 26.6455C88.5495 27.0894 90.8623 27.7639 93.2915 27.9384C93.003 24.0877 97.1011 23.8529 99.7047 24.9691C102.308 26.0874 104.888 26.8998 107.505 27.9384C104.593 30.1794 101.135 32.2093 97.4327 33.3751C93.7308 34.5387 88.1252 36.0729 84.4793 33.7392C80.8334 31.4034 81.2942 26.3072 79.9397 22.7668C76.5113 23.9865 73.141 25.3418 69.8181 26.861C71.4828 32.3838 74.1445 39.8977 70.4103 45.1232C66.6783 50.3486 60.9758 51.8204 55.1742 52.719C55.6199 53.3072 56.1928 53.8718 56.6816 54.4428ZM139.808 28.1539C141.08 28.3866 142.026 30.2872 142.461 31.3172C142.896 32.3472 143.68 35.4458 141.944 35.6786C140.21 35.9134 139.228 34.6399 137.721 34.1228C136.211 33.6035 135.397 31.9055 136.345 30.7225C137.294 29.5416 137.984 27.8199 139.808 28.1539Z" fill="#9C6114" stroke="#9C6114" stroke-width="0.463127"/>
<path d="M10.8121 30.9531C10.6786 30.2054 10.6937 29.5309 10.8121 28.7983C10.6958 27.3222 11.6477 26.1349 11.6735 24.7041C9.60182 24.0749 7.50644 23.5469 5.42829 22.9802C2.44997 29.7658 0.623779 40.9623 8.07712 45.7568C15.5305 50.5513 26.4101 48.9675 34.7119 48.4029C43.0116 47.8362 50.9581 43.3175 51.2983 34.4008C51.3306 33.541 51.2983 32.6748 51.2983 31.815C51.182 27.0615 49.6315 22.6484 47.6373 18.4551C46.0933 19.6014 43.5177 20.3298 42.0877 21.5214C40.6578 22.713 36.8224 23.0362 38.2114 25.301C39.6004 27.5657 39.4281 28.5763 40.7934 31.1212C42.1609 33.6639 40.5286 35.3834 37.7785 35.5256C35.0285 35.67 32.8706 36.5535 30.1981 36.56C27.5277 36.5686 24.5903 36.9392 22.0104 36.7711C19.4305 36.6031 16.9281 36.2087 14.7057 35.461C12.4811 34.7133 10.9672 33.2307 10.8121 30.9531Z" fill="#9C6114" stroke="#9C6114" stroke-width="0.463127"/>
<path d="M52.5901 84.6088C52.6654 85.3867 52.73 86.1948 52.5901 86.9791C52.3316 90.7738 48.2055 90.123 47.0577 87.3433C45.9077 84.5657 46.1403 81.6244 44.4605 79.1679C42.7808 76.7114 40.0286 75.8279 37.3001 75.774C36.4386 75.7568 35.5772 75.774 34.7158 75.774C27.9688 76.011 21.6461 78.1896 15.7648 81.1611C16.8071 84.9687 18.6419 88.5758 18.9951 92.5817C19.1975 93.575 19.1695 94.6223 18.9951 95.5984C18.8917 97.1241 18.7001 97.8976 17.9873 99.3306C17.2766 100.766 17.5846 100.805 16.2494 102.332C14.912 103.86 12.7607 105.69 11.0443 106.605C9.32579 107.521 9.11044 107.448 7.80109 108.101C6.49391 108.756 5.04243 108.568 4.06473 109.103C3.08919 109.637 0.504962 109.055 0.25946 110.036C1.48051 111.079 2.67141 112.275 3.7051 113.484C5.57435 115.673 7.87432 117.554 9.73496 119.733C10.2346 120.543 11.1606 121.069 11.6731 121.887C25.7163 118.192 33.1782 102.091 29.332 88.4875C31.6298 87.4984 37.1364 86.5912 38.1658 89.7761C39.1973 92.9609 39.2016 95.9087 41.2259 98.5656C43.2502 101.223 45.6385 102.643 48.9291 102.709C49.6397 102.724 50.3719 102.748 51.0826 102.709C54.2569 102.761 56.9057 100.535 58.6199 97.9687C60.4073 100.559 62.8861 102.645 66.1573 102.709C66.939 102.724 67.7444 102.752 68.5261 102.709C71.5303 102.66 73.953 100.371 75.4174 97.9687C77.4546 101.33 81.3633 102.709 85.1083 102.709C85.8986 102.709 86.6868 102.709 87.4771 102.709C89.622 102.709 92.0318 102.408 93.9334 101.628C95.8328 100.845 97.4673 100.792 99.1708 99.5418C100.874 98.2941 102.293 98.1088 103.898 99.6387C105.502 101.169 107.05 101.199 108.997 101.863C110.944 102.526 113.334 102.709 115.473 102.709C116.765 102.709 118.057 102.709 119.349 102.709C122.939 102.709 126.238 101.699 129.255 99.9081C130.085 99.2918 131.114 98.3221 131.84 97.5378C137.997 88.5694 133.87 76.5821 133.563 66.5082C134.73 66.0126 135.677 65.0171 136.793 64.3534C134.329 59.9985 132.619 55.3182 131.194 50.5625C127.425 52.4372 123.725 54.2085 119.995 56.1651C120.499 59.6968 121.253 63.7285 121.647 67.2258C122.041 70.7231 122.989 74.9918 123.01 78.3598C123.034 81.7278 125.259 86.5999 122.198 88.7525C119.138 90.9052 114.685 89.3559 111.381 89.1339C113.07 86.9102 114.422 84.8545 115.477 82.2428C116.532 79.6333 116.976 75.8257 115.973 73.1193C114.971 70.4106 113.257 68.7859 110.535 67.786C107.815 66.7841 104.16 66.3854 101.189 66.6526C98.2167 66.9198 94.5945 67.1374 91.9306 68.1631C89.2667 69.1867 85.9266 69.3699 85.5346 72.5375C85.1427 75.7029 84.3158 78.7778 84.2468 82.023C88.808 81.1956 91.5947 85.6561 93.9377 88.703C89.6716 89.9118 81.4386 91.2177 79.494 85.9168C77.5472 80.6181 77.9155 75.6404 75.4174 70.6024C73.2143 71.1562 71.3322 72.4879 69.1787 73.1947C67.023 73.8993 64.3849 74.7289 65.7309 77.0626C67.079 79.3941 66.6633 81.5317 67.7121 83.6995C68.763 85.8672 68.3237 89.9894 65.5155 89.5606C62.7095 89.1296 62.9808 86.3779 62.1366 84.3222C61.2903 82.2665 61.342 79.1054 60.9888 76.8514C57.8102 77.0777 54.8642 78.2003 51.7287 78.5753C51.9139 80.6461 52.5901 82.4885 52.5901 84.6088ZM100.614 82.2385C99.8405 81.4649 99.0071 80.631 98.2447 79.8682C97.6568 79.3639 96.9569 78.9804 96.5219 78.3598C99.0006 78.0409 103.924 76.2308 106.157 78.2003C108.39 80.1677 103.745 83.5766 102.552 84.8243C101.981 83.9042 101.286 83.0853 100.614 82.2385Z" fill="#9C6114" stroke="#9C6114" stroke-width="0.463127"/>
<path d="M111.382 50.7812C106.521 52.2724 100.916 53.8368 96.2381 55.6684C91.5585 57.4979 84.9494 57.5302 84.2473 63.4947C86.8165 62.8009 89.4265 61.9002 91.9526 61.077C94.4766 60.2517 96.7184 59.1765 99.3069 58.5235C101.893 57.8685 104.049 56.5605 106.713 56.0218C109.377 55.4852 111.102 53.645 111.382 50.7812Z" fill="#9C6114" stroke="#9C6114" stroke-width="0.463127"/>
<path d="M49.1443 51.4283C42.5286 50.353 40.2158 59.6317 46.8465 61.2694C53.4772 62.907 55.7491 52.5014 49.1443 51.4283Z" fill="#9C6114" stroke="#9C6114" stroke-width="0.463127"/>
<path d="M28.9009 52.0705C22.2961 50.7022 19.6451 59.9938 26.1724 61.9116C32.6997 63.8294 35.4972 53.4367 28.9009 52.0705Z" fill="#9C6114" stroke="#9C6114" stroke-width="0.463127"/>
<path d="M43.7608 61.9829C39.7531 61.1533 35.6571 64.7756 37.1344 68.6133C38.6118 72.4511 43.2289 72.7334 45.9682 70.4406C48.7053 68.1479 47.3787 62.7328 43.7608 61.9829Z" fill="#9C6114" stroke="#9C6114" stroke-width="0.463127"/>
<path d="M55.3897 61.9815C51.2765 61.1282 47.4475 64.6794 48.8645 68.5128C50.2794 72.3441 54.8449 72.7169 57.5971 70.4392C60.3493 68.1594 58.9323 62.7163 55.3897 61.9815Z" fill="#9C6114" stroke="#9C6114" stroke-width="0.463127"/>
</svg>
